<svg width="685" height="224" viewBox="0 0 685 224" fill="none" xmlns="http://www.w3.org/2000/svg">
<path d="M159.346 224C156.841 223.998 154.369 223.431 152.114 222.34C149.858 221.249 147.877 219.662 146.318 217.698C141.494 212.479 104.211 175.788 81.365 153.418C79.7839 151.891 78.5199 150.066 77.6458 148.047C76.7718 146.029 76.3049 143.857 76.2721 141.657C76.2394 139.457 76.6413 137.272 77.4548 135.228C78.2684 133.184 79.4775 131.322 81.0124 129.748C82.5473 128.175 84.3778 126.921 86.3984 126.059C88.419 125.197 90.5898 124.745 92.7858 124.727C94.9818 124.709 97.1596 125.127 99.1937 125.956C101.228 126.786 103.078 128.01 104.638 129.559C104.801 129.719 121.255 145.832 137.586 161.928L142.703 166.973V88.6212C142.703 58.151 118.164 33.3614 88 33.3614C57.8361 33.3614 33.2973 58.151 33.2973 88.6212V207.318C33.2973 211.742 31.5432 215.985 28.421 219.113C25.2988 222.241 21.0641 223.998 16.6486 223.998C12.2331 223.998 7.9985 222.241 4.87627 219.113C1.75405 215.985 0 211.742 0 207.318V88.6212C0 39.755 39.4765 0 88 0C136.523 0 176 39.755 176 88.6212V207.318C175.998 211.742 174.243 215.985 171.12 219.114C167.997 222.242 163.762 223.999 159.346 224ZM144.21 214.249L144.217 214.264L144.21 214.249Z" fill="url(#paint0_linear)"/>
<path d="M88.001 104.655C98.5095 104.655 107.028 96.1202 107.028 85.5914C107.028 75.0627 98.5095 66.5275 88.001 66.5275C77.4925 66.5275 68.9737 75.0627 68.9737 85.5914C68.9737 96.1202 77.4925 104.655 88.001 104.655Z" fill="url(#paint1_linear)"/>
<path d="M218.234 159.055H263.023V176H197.141V73.625H218.234V159.055ZM354.781 127.133C354.781 137.211 353 146.047 349.438 153.641C345.875 161.234 340.766 167.094 334.109 171.219C327.5 175.344 319.906 177.406 311.328 177.406C302.844 177.406 295.273 175.367 288.617 171.289C281.961 167.211 276.805 161.398 273.148 153.852C269.492 146.258 267.641 137.539 267.594 127.695V122.633C267.594 112.555 269.398 103.695 273.008 96.0547C276.664 88.3672 281.797 82.4844 288.406 78.4062C295.062 74.2812 302.656 72.2188 311.188 72.2188C319.719 72.2188 327.289 74.2812 333.898 78.4062C340.555 82.4844 345.688 88.3672 349.297 96.0547C352.953 103.695 354.781 112.531 354.781 122.562V127.133ZM333.406 122.492C333.406 111.758 331.484 103.602 327.641 98.0234C323.797 92.4453 318.312 89.6562 311.188 89.6562C304.109 89.6562 298.648 92.4219 294.805 97.9531C290.961 103.438 289.016 111.5 288.969 122.141V127.133C288.969 137.586 290.891 145.695 294.734 151.461C298.578 157.227 304.109 160.109 311.328 160.109C318.406 160.109 323.844 157.344 327.641 151.812C331.438 146.234 333.359 138.125 333.406 127.484V122.492ZM451.109 163.062C447.312 167.609 441.945 171.148 435.008 173.68C428.07 176.164 420.383 177.406 411.945 177.406C403.086 177.406 395.305 175.484 388.602 171.641C381.945 167.75 376.789 162.125 373.133 154.766C369.523 147.406 367.672 138.758 367.578 128.82V121.859C367.578 111.641 369.289 102.805 372.711 95.3516C376.18 87.8516 381.148 82.1328 387.617 78.1953C394.133 74.2109 401.75 72.2188 410.469 72.2188C422.609 72.2188 432.102 75.125 438.945 80.9375C445.789 86.7031 449.844 95.1172 451.109 106.18H430.578C429.641 100.32 427.555 96.0312 424.32 93.3125C421.133 90.5938 416.727 89.2344 411.102 89.2344C403.93 89.2344 398.469 91.9297 394.719 97.3203C390.969 102.711 389.07 110.727 389.023 121.367V127.906C389.023 138.641 391.062 146.75 395.141 152.234C399.219 157.719 405.195 160.461 413.07 160.461C420.992 160.461 426.641 158.773 430.016 155.398V137.75H410.82V122.211H451.109V163.062ZM552.359 127.133C552.359 137.211 550.578 146.047 547.016 153.641C543.453 161.234 538.344 167.094 531.688 171.219C525.078 175.344 517.484 177.406 508.906 177.406C500.422 177.406 492.852 175.367 486.195 171.289C479.539 167.211 474.383 161.398 470.727 153.852C467.07 146.258 465.219 137.539 465.172 127.695V122.633C465.172 112.555 466.977 103.695 470.586 96.0547C474.242 88.3672 479.375 82.4844 485.984 78.4062C492.641 74.2812 500.234 72.2188 508.766 72.2188C517.297 72.2188 524.867 74.2812 531.477 78.4062C538.133 82.4844 543.266 88.3672 546.875 96.0547C550.531 103.695 552.359 112.531 552.359 122.562V127.133ZM530.984 122.492C530.984 111.758 529.062 103.602 525.219 98.0234C521.375 92.4453 515.891 89.6562 508.766 89.6562C501.688 89.6562 496.227 92.4219 492.383 97.9531C488.539 103.438 486.594 111.5 486.547 122.141V127.133C486.547 137.586 488.469 145.695 492.312 151.461C496.156 157.227 501.688 160.109 508.906 160.109C515.984 160.109 521.422 157.344 525.219 151.812C529.016 146.234 530.938 138.125 530.984 127.484V122.492Z" fill="#1B1C57"/>
<defs>
<linearGradient id="paint0_linear" x1="88" y1="226.688" x2="88" y2="0.671991" gradientUnits="userSpaceOnUse">
<stop stop-color="#00C0F4"/>
<stop offset="1" stop-color="#12ECA0"/>
</linearGradient>
<linearGradient id="paint1_linear" x1="88.001" y1="226.627" x2="88.001" y2="0.64242" gradientUnits="userSpaceOnUse">
<stop stop-color="#00C0F4"/>
<stop offset="1" stop-color="#12ECA0"/>
</linearGradient>
</defs>
</svg>
